<?xml version="1.0"?>
<svg xmlns="http://www.w3.org/2000/svg" enable-background="new 0 0 24 24" height="512px" viewBox="0 0 24 24" width="512px"><g><path d="m17.5 24c-3.584 0-6.5-2.916-6.5-6.5s2.916-6.5 6.5-6.5 6.5 2.916 6.5 6.5-2.916 6.5-6.5 6.5zm0-12c-3.032 0-5.5 2.467-5.5 5.5s2.468 5.5 5.5 5.5 5.5-2.467 5.5-5.5-2.468-5.5-5.5-5.5z" data-original="#000000" class="active-path" data-old_color="#000000" fill="#FFFFFF"/><path d="m13.265 22.235c-.128 0-.256-.049-.354-.146-.195-.195-.195-.512 0-.707l8.471-8.47c.195-.195.512-.195.707 0s.195.512 0 .707l-8.471 8.47c-.097.097-.225.146-.353.146z" data-original="#000000" class="active-path" data-old_color="#000000" fill="#FFFFFF"/><path d="m9.5 21h-8c-.827 0-1.5-.673-1.5-1.5v-18c0-.827.673-1.5 1.5-1.5h18c.827 0 1.5.673 1.5 1.5v8c0 .276-.224.5-.5.5s-.5-.224-.5-.5v-8c0-.276-.225-.5-.5-.5h-18c-.275 0-.5.224-.5.5v18c0 .276.225.5.5.5h8c.276 0 .5.224.5.5s-.224.5-.5.5z" data-original="#000000" class="active-path" data-old_color="#000000" fill="#FFFFFF"/><path d="m14.5 9c-.106 0-.212-.034-.3-.1l-3.7-2.775-3.7 2.775c-.15.114-.354.131-.523.047-.17-.085-.277-.258-.277-.447v-8c0-.276.224-.5.5-.5h8c.276 0 .5.224.5.5v8c0 .189-.107.362-.276.447-.071.035-.148.053-.224.053zm-4-4c.105 0 .211.033.3.1l3.2 2.4v-6.5h-7v6.5l3.2-2.4c.089-.067.195-.1.3-.1z" data-original="#000000" class="active-path" data-old_color="#000000" fill="#FFFFFF"/></g> </svg>
