<svg xmlns="http://www.w3.org/2000/svg" viewBox="0 0 30 30">
  <path d="M16 4C14.894531 4 14 4.894531 14 6C14 6.738281 14.402344 7.371094 15 7.71875L15 10L7 10L7 14.28125C6.402344 14.628906 6 15.261719 6 16C6 16.738281 6.402344 17.371094 7 17.71875L7 20L3 20L3 24.28125C2.402344 24.628906 2 25.261719 2 26C2 27.105469 2.894531 28 4 28C5.105469 28 6 27.105469 6 26C6 25.261719 5.597656 24.628906 5 24.28125L5 22L11 22L11 24.28125C10.402344 24.628906 10 25.261719 10 26C10 27.105469 10.894531 28 12 28C13.105469 28 14 27.105469 14 26C14 25.261719 13.597656 24.628906 13 24.28125L13 20L9 20L9 17.71875C9.597656 17.371094 10 16.738281 10 16C10 15.261719 9.597656 14.628906 9 14.28125L9 12L23 12L23 14.28125C22.402344 14.628906 22 15.261719 22 16C22 16.738281 22.402344 17.371094 23 17.71875L23 20L19 20L19 24.28125C18.402344 24.628906 18 25.261719 18 26C18 27.105469 18.894531 28 20 28C21.105469 28 22 27.105469 22 26C22 25.261719 21.597656 24.628906 21 24.28125L21 22L27 22L27 24.28125C26.402344 24.628906 26 25.261719 26 26C26 27.105469 26.894531 28 28 28C29.105469 28 30 27.105469 30 26C30 25.261719 29.597656 24.628906 29 24.28125L29 20L25 20L25 17.71875C25.597656 17.371094 26 16.738281 26 16C26 15.261719 25.597656 14.628906 25 14.28125L25 10L17 10L17 7.71875C17.597656 7.371094 18 6.738281 18 6C18 4.894531 17.105469 4 16 4Z" fill="#FFFFFF" />
</svg>