<?xml version="1.0"?>
<svg xmlns="http://www.w3.org/2000/svg" height="512px" viewBox="0 0 60 60" width="512px" class=""><g><g id="Page-1" fill="none" fill-rule="evenodd"><g id="043---Stamp" fill="rgb(0,0,0)" fill-rule="nonzero" transform="translate(-1)"><path id="Shape" d="m42.21 3.224c-2.0708975 2.05961816-3.2315037 4.86228582-3.223 7.783 0 .155.016.307.022.46-2.009 3.249-7.475 10.033-17.588 9.177l-3.271-3.271c-1.9538669-1.9486045-5.1161331-1.9486045-7.07 0l-7.08 7.08c-1.68348656 1.6816134-1.94866505 4.3166678-.634 6.3l-1.488 1.482c-.56271905.5626237-.87885933 1.3257625-.87885933 2.1215s.31614028 1.5588763.87885933 2.1215l22.644 22.644c.5626237.562719 1.3257625.8788593 2.1215.8788593s1.5588763-.3161403 2.1215-.8788593l1.488-1.488c1.982743 1.3085532 4.6120648 1.0436994 6.294-.634l7.079-7.079c1.9525763-1.9526137 1.9525763-5.1183863 0-7.071l-3.269-3.27c-.85-10.13 5.937-15.59 9.182-17.594.152.006.3.022.455.022 4.9761925-.0052754 9.3290834-3.3506143 10.614822-8.1578376 1.2857385-4.80722328-.8159399-9.87889951-5.1250865-12.36762905s-9.752396-1.77459468-13.2737355 1.74146665zm-14.86 54.484c-.3947318.3790637-1.0182682.3790637-1.413 0l-22.645-22.645c-.39038194-.3904999-.39038194-1.0235001 0-1.414l1.417-1.417 24.058 24.059zm14.862-9.2-24.06-24.057c-.3923789-.3789722-1.0160848-.3735524-1.4018186.0121814s-.3911536 1.0094397-.0121814 1.4018186l24.062 24.058-5.663 5.663c-.5626237.562719-1.3257625.8788593-2.1215.8788593s-1.5588763-.3161403-2.1215-.8788593l-25.478-25.475c-1.17114581-1.1714996-1.17114581-3.0705004 0-4.242l5.661-5.669 1.416 1.415c.2527654.2525868.6210837.3511378.966213.25853.3451292-.0926079.6146361-.3623054.707-.7075.0923638-.3451947-.0064476-.7134432-.259213-.96603l-1.416-1.41c1.1714996-1.1711458 3.0705004-1.1711458 4.242 0l25.479 25.474c.562719.5626237.8788593 1.3257625.8788593 2.1215s-.3161403 1.5588763-.8788593 2.1215zm-3.924-11-14.788-14.791c6.3630147-.1216227 12.2946994-3.2416889 16-8.416 1.078549 3.4402127 3.7776607 6.1314749 7.221 7.2-5.1843963 3.7030072-8.3116657 9.6401095-8.433 16.01zm18.074-20.133c-3.0382114 3.038017-7.7993697 3.5067885-11.3717298 1.1196314s-4.960965-6.9653829-3.3165962-10.93480696c1.6443688-3.96942403 5.8637294-6.22450083 10.0776797-5.38611036s7.2488406 4.53674361 7.2486463 8.83328592c-.0012051 2.38828-.9499527 4.6785092-2.638 6.368z" data-original="#000000" class="active-path" data-old_color="#000000" fill="#FDFDFD"/><path id="Shape" d="m45.041 6.054c-.3789722.39237889-.3735524 1.01608478.0121814 1.40181858.3857338.38573379 1.0094397.39115363 1.4018186.01218142 1.9555839-1.95105974 5.1214161-1.95105974 7.077 0 .3923789.37897221 1.0160848.37355237 1.4018186-.01218142.3857338-.3857338.3911536-1.00943969.0121814-1.40181858-2.7368122-2.73127174-7.1681878-2.73127174-9.905 0z" data-original="#000000" class="active-path" data-old_color="#000000" fill="#FDFDFD"/></g></g></g> </svg>
