<?xml version="1.0"?>
<svg xmlns="http://www.w3.org/2000/svg" height="512px" viewBox="0 0 60 60" width="512px"><g><g id="Page-1" fill="none" fill-rule="evenodd"><g id="081---Clock" fill="rgb(0,0,0)" fill-rule="nonzero" transform="translate(-1)"><path id="Shape" d="m55.933 29.508h.058c.5307696.0008629.9697468-.4130926 1-.943.009-.187.009-.376.009-.565.0037086-4.8917404-1.2825296-9.6979735-3.729-13.934-.01-.021-.01-.045-.022-.066s-.033-.032-.046-.052c-2.4517446-4.2015884-5.9486871-7.69749744-10.151-10.148-.02-.014-.031-.034-.052-.046s-.045-.012-.066-.022c-8.6204413-4.969404-19.2355587-4.969404-27.856 0-.026.012-.053.012-.078.026s-.041.041-.065.058c-.9944899.56892123-1.9532774 1.19809424-2.871 1.884-.2858125.21650295-.4344111.56903906-.3898203.92481139.0445908.35577234.2755967.66073062.606.8.3304033.13926939.7100078.09169156.9958203-.12481139.607-.462 1.232-.89 1.869-1.294l.989 1.714c.2780058.47421361.886647.63512861 1.3626943.36027453s.640996-.88241457.3693057-1.36027453l-.994-1.722c3.4376514-1.8155095 7.242599-2.82692529 11.128-2.958v1.96c0 .55228475.4477153 1 1 1s1-.44771525 1-1v-1.975c3.8839203.14482752 7.685051 1.16450135 11.12 2.983l-.986 1.708c-.1814844.30957042-.1831833.69264947-.0044519 1.00381742.1787315.31116795.5104885.50271357.8693336.50192468.3588451-.00078888.6897567-.19379132.8671183-.5057421l.984-1.7c3.2825926 2.07561097 6.062389 4.8554074 8.138 8.138l-1.7.984c-.3119508.1773616-.5049532.5082732-.5057421.8671183s.1907567.6906021.5019247.8693336c.3111679.1787314.694247.1770325 1.0038174-.0044519l1.707-.986c1.9770649 3.7322876 3.0088541 7.8924065 3.005 12.116 0 .15 0 .3-.008.452-.0152915.2648288.0752675.5248822.2517475.72293.1764801.1980478.424419.3178602.6892525.33307z" data-original="#000000" class="active-path" data-old_color="#000000" fill="#FFFFFF"/><path id="Shape" d="m45 28c-8.836556 0-16 7.163444-16 16s7.163444 16 16 16 16-7.163444 16-16c-.0104696-8.8322157-7.1677843-15.9895304-16-16zm0 30c-5.6624714 0-10.7673795-3.4109905-12.9343135-8.6424319-2.166934-5.2314415-.9691534-11.2530911 3.0348186-15.257063 4.0039719-4.003972 10.0256215-5.2017526 15.257063-3.0348186 5.2314414 2.166934 8.6424319 7.2718421 8.6424319 12.9343135-.0082673 7.7285595-6.2714405 13.9917327-14 14z" data-original="#000000" class="active-path" data-old_color="#000000" fill="#FFFFFF"/><path id="Shape" d="m31.126 8.893c-.5571583-.5752473-1.3251808-.89784564-2.126-.893-1.6568542 0-3 1.34314575-3 3v14.382c-.572853.6541219-.9147421 1.4784506-.973 2.346l-6.734 6.734c-1.1722244 1.1719482-1.1724482 3.0722756-.0005 4.2445 1.1719483 1.1722243 3.0722756 1.1724482 4.2445.0005l6.735-6.734c1.5156207-.090561 2.8464382-1.0386838 3.4270973-2.4415887.5806592-1.4029049.3091843-3.0142129-.6990973-4.1494113v-14.382c.0059317-.7916941-.3094302-1.55195434-.874-2.107zm-2.126 1.107c.2693445-.00039544.526929.110308.712.306.1865985.1823963.2906276.4330776.288.694v13.142c-.653223-.1893403-1.346777-.1893403-2 0v-13.142c0-.5522847.4477153-1 1-1zm-7.877 27.293c-.3963579.3779051-1.0196421.3779051-1.416 0-.3824301-.3941475-.3824301-1.0208525 0-1.415l5.859-5.859c.3443051.5844254.8315746 1.0716949 1.416 1.416zm7.877-7.293c-1.1045695 0-2-.8954305-2-2s.8954305-2 2-2 2 .8954305 2 2-.8954305 2-2 2z" data-original="#000000" class="active-path" data-old_color="#000000" fill="#FFFFFF"/><path id="Shape" d="m4.813 42.081c2.45126093 4.1889586 5.9421738 7.6743604 10.135 10.119.02.014.031.034.052.046.0325049.0153177.065898.0286749.1.04 4.2274939 2.4354605 9.021151 3.7162981 13.9 3.714.189 0 .378 0 .567-.012.5510831-.0316812.9722695-.5038933.941-1.055-.0440145-.5450383-.5084946-.9593282-1.055-.941-.153.008-.3.008-.453.008-4.2251993.0035842-8.386784-1.0292579-12.12-3.008l.986-1.708c.2716903-.47786.1067416-1.0854205-.3693057-1.3602745-.4760473-.2748541-1.0846885-.1139391-1.3626943.3602745l-.984 1.7c-3.282161-2.074463-6.06192356-4.8528593-8.138-8.134l1.7-.984c.31195078-.1773616.50495322-.5082732.5057421-.8671183.00078889-.3588451-.19075673-.6906021-.50192468-.8693336-.31116795-.1787314-.694247-.1770325-1.00381742.0044519l-1.707.986c-1.81745522-3.4351968-2.83610006-7.2363145-2.98-11.12h1.975c.55228475 0 1-.4477153 1-1s-.44771525-1-1-1h-1.96c.13011754-3.8849212 1.13978347-7.6897172 2.953-11.128l1.722.994c.30957042.1814844.69264947.1831833 1.00381742.0044519.31116795-.1787315.50271357-.5104885.50192468-.8693336-.00078888-.3588451-.19379132-.6897567-.5057421-.8671183l-1.715-.99c.4-.637.832-1.262 1.294-1.869.23230054-.2828503.29151178-.6700138.15436829-1.0093654-.13714348-.3393515-.44872685-.5766644-.81232197-.618693-.36359513-.0420286-.72110131.117943-.93204632.4170584-.69112683.917125-1.32563955 1.8755732-1.9 2.87-.017.024-.043.039-.058.066s-.014.053-.027.079c-4.96860841 8.620297-4.96860841 19.234703 0 27.855.01.021.01.045.022.066.02246374.0283274.04650163.05537.072.081z" data-original="#000000" class="active-path" data-old_color="#000000" fill="#FFFFFF"/><path id="Shape" d="m49 39.5c0 .5522847.4477153 1 1 1s1-.4477153 1-1c-.1052769-2.7905788-2.2267656-5.0889996-5-5.417v-.083c0-.5522847-.4477153-1-1-1s-1 .4477153-1 1v.083c-2.7732344.3280004-4.8947231 2.6264212-5 5.417.1052769 2.7905788 2.2267656 5.0889996 5 5.417v6.959c-1.6652604-.2874313-2.9102849-1.6884988-3-3.376 0-.5522847-.4477153-1-1-1s-1 .4477153-1 1c.1052769 2.7905788 2.2267656 5.0889996 5 5.417v.083c0 .5522847.4477153 1 1 1s1-.4477153 1-1v-.083c2.8256867-.2240395 5.0045038-2.5824455 5.0045038-5.417s-2.1788171-5.1929605-5.0045038-5.417v-6.959c1.6652604.2874313 2.9102849 1.6884988 3 3.376zm-8 0c.0897151-1.6875012 1.3347396-3.0885687 3-3.376v6.752c-1.6652604-.2874313-2.9102849-1.6884988-3-3.376zm8 9c-.0897151 1.6875012-1.3347396 3.0885687-3 3.376v-6.752c1.6652604.2874313 2.9102849 1.6884988 3 3.376z" data-original="#000000" class="active-path" data-old_color="#000000" fill="#FFFFFF"/></g></g></g> </svg>
