<?xml version="1.0"?>
<svg xmlns="http://www.w3.org/2000/svg" id="Layer_5" enable-background="new 0 0 64 64" height="512px" viewBox="0 0 64 64" width="512px" class=""><g><path d="m55.975 49.755c1.825-1.265 3.025-3.372 3.025-5.755 0-3.859-3.141-7-7-7s-7 3.141-7 7c0 2.383 1.2 4.49 3.025 5.755-2.673 1.041-4.837 3.093-6.025 5.689-1.188-2.596-3.352-4.649-6.025-5.689 1.825-1.265 3.025-3.372 3.025-5.755 0-3.859-3.141-7-7-7s-7 3.141-7 7c0 2.383 1.2 4.49 3.025 5.755-2.673 1.041-4.837 3.093-6.025 5.689-1.188-2.596-3.352-4.649-6.025-5.689 1.825-1.265 3.025-3.372 3.025-5.755 0-3.859-3.141-7-7-7s-7 3.141-7 7c0 2.383 1.2 4.49 3.025 5.755-4.104 1.598-7.025 5.582-7.025 10.245v3h20 2 18 2 20v-3c0-4.663-2.921-8.647-7.025-10.245zm-8.975-5.755c0-2.757 2.243-5 5-5s5 2.243 5 5-2.243 5-5 5-5-2.243-5-5zm-20 0c0-2.757 2.243-5 5-5s5 2.243 5 5-2.243 5-5 5-5-2.243-5-5zm-20 0c0-2.757 2.243-5 5-5s5 2.243 5 5-2.243 5-5 5-5-2.243-5-5zm14 17h-3v-6h-2v6h-8v-6h-2v6h-3v-1c0-4.963 4.037-9 9-9s9 4.037 9 9zm20 0h-3v-6h-2v6h-8v-6h-2v6h-3v-1c0-4.963 4.037-9 9-9s9 4.037 9 9zm20 0h-3v-6h-2v6h-8v-6h-2v6h-3v-1c0-4.963 4.037-9 9-9s9 4.037 9 9z" data-original="#000000" class="active-path" data-old_color="#000000" fill="#FFFFFF"/><path d="m54.049 15.199c1.799-1.469 2.951-3.701 2.951-6.199 0-4.411-3.589-8-8-8s-8 3.589-8 8c0 2.39 1.059 4.533 2.726 6h-4.726v-14h-38v34h38v-13c1.103 0 2 .897 2 2v11h22v-9c0-5.365-3.863-9.838-8.951-10.801zm-3.049 1.801c0 1.103-.897 2-2 2s-2-.897-2-2zm-8-8c0-3.309 2.691-6 6-6s6 2.691 6 6-2.691 6-6 6-6-2.691-6-6zm-6-6v6h-34v-6zm0 30h-34v-22h34v4h-8.5c-1.391 0-2.585.822-3.149 2h-4.351v14h6v-9.351c.456.218.961.351 1.5.351h.5v9h6v-9h2zm-12-14v10h-2v-10zm6 3h2v7h-2zm30 11h-3v-11h-2v11h-13v-9c0-2.206-1.794-4-4-4h-10.5c-.827 0-1.5-.673-1.5-1.5s.673-1.5 1.5-1.5h16.5c0 2.206 1.794 4 4 4 2.186 0 3.962-1.763 3.994-3.942 4.496.497 8.006 4.315 8.006 8.942z" data-original="#000000" class="active-path" data-old_color="#000000" fill="#FFFFFF"/><path d="m5 5h2v2h-2z" data-original="#000000" class="active-path" data-old_color="#000000" fill="#FFFFFF"/><path d="m9 5h2v2h-2z" data-original="#000000" class="active-path" data-old_color="#000000" fill="#FFFFFF"/><path d="m13 5h2v2h-2z" data-original="#000000" class="active-path" data-old_color="#000000" fill="#FFFFFF"/><path d="m5 31h6v-18h-6zm2-16h2v14h-2z" data-original="#000000" class="active-path" data-old_color="#000000" fill="#FFFFFF"/><path d="m13 31h6v-10h-6zm2-8h2v6h-2z" data-original="#000000" class="active-path" data-old_color="#000000" fill="#FFFFFF"/></g> </svg>
