<?xml version="1.0"?>
<svg xmlns="http://www.w3.org/2000/svg" viewBox="0 0 512 512" width="512px" height="512px" class=""><g><g id="Recommend"><path d="M500.867,209.651,408,138.453V80a8,8,0,0,0-8-8H321.324L260.867,25.651a8,8,0,0,0-9.734,0L190.676,72H112a8,8,0,0,0-8,8v58.453l-92.867,71.2A8,8,0,0,0,8,216V488a8,8,0,0,0,8,8H496a8,8,0,0,0,8-8V216A8,8,0,0,0,500.867,209.651ZM179.577,351.489,24,471.708V232.214Zm13.135,10.071,58.421,44.789a8,8,0,0,0,9.734,0l62.43-47.864L473.4,480H39.436Zm143.645-13.087L488,232.214V471.232ZM482.852,216,408,273.386V158.613ZM256,42.081,295.026,72H216.974ZM392,88V285.653L256,389.919,120,285.653V88ZM104,273.386,29.148,216,104,158.613Z" data-original="#000000" class="active-path" data-old_color="#000000" fill="#FFFCFC"/><path d="M392,456H312a8,8,0,0,0,0,16h80a8,8,0,0,0,0-16Z" data-original="#000000" class="active-path" data-old_color="#000000" fill="#FFFCFC"/><path d="M424,456h-8a8,8,0,0,0,0,16h8a8,8,0,0,0,0-16Z" data-original="#000000" class="active-path" data-old_color="#000000" fill="#FFFCFC"/><path d="M168,264H344a8,8,0,0,0,0-16H168a8,8,0,0,0,0,16Z" data-original="#000000" class="active-path" data-old_color="#000000" fill="#FFFCFC"/><path d="M168,288h96a8,8,0,0,0,0-16H168a8,8,0,0,0,0,16Z" data-original="#000000" class="active-path" data-old_color="#000000" fill="#FFFCFC"/><path d="M296,272h-8a8,8,0,0,0,0,16h8a8,8,0,0,0,0-16Z" data-original="#000000" class="active-path" data-old_color="#000000" fill="#FFFCFC"/><path d="M189.744,158.472l33.34,24.223L210.35,221.889a8,8,0,0,0,12.31,8.944L256,206.61l33.34,24.223a8,8,0,0,0,12.31-8.944L288.916,182.7l33.34-24.223a8,8,0,0,0-4.7-14.472h-41.21l-12.736-39.193a8,8,0,0,0-15.216,0L235.656,144h-41.21a8,8,0,0,0-4.7,14.472ZM241.469,160a8,8,0,0,0,7.608-5.528L256,133.167l6.923,21.305A8,8,0,0,0,270.531,160h22.4L274.81,173.167a8,8,0,0,0-2.907,8.944l6.922,21.306L260.7,190.249a8,8,0,0,0-9.4,0l-18.123,13.168,6.922-21.306a8,8,0,0,0-2.907-8.944L219.067,160Z" data-original="#000000" class="active-path" data-old_color="#000000" fill="#FFFCFC"/></g></g> </svg>
